<?xml version="1.0" encoding="UTF-8"?>
<svg id="Layer_1" xmlns="http://www.w3.org/2000/svg" xmlns:xlink="http://www.w3.org/1999/xlink" version="1.1" viewBox="0 0 256 256">
  <!-- Generator: Adobe Illustrator 29.2.1, SVG Export Plug-In . SVG Version: 2.1.0 Build 116)  -->
  <defs>
    <style>
      .st0 {
        fill: #fff;
      }
    </style>
  </defs>
  <path class="st0" d="M196.5,123.1h-1.3c-2.8,0-5.4.6-7.7,1.7-1.8-8.4-9.3-14.6-18.1-14.6h-1.3c-3.2,0-6.2.8-8.8,2.2-2.8-6.7-9.4-11.4-17.1-11.4h-1.3c-2.6,0-5.1.5-7.3,1.5v-26.6c0-10.2-8.3-18.6-18.6-18.6h-1.3c-10.2,0-18.6,8.3-18.6,18.6v68.2l-8.4,6.4c-6.7,5.1-11,12.5-12,20.9-1,8.4,1.3,16.6,6.7,23.2l26.4,32.6v12.9c0,7.8,6.4,14.2,14.2,14.2h65.8c7.8,0,14.2-6.4,14.2-14.2v-12.3c8.4-10.6,13-23.7,13-37.2v-48.9c0-10.2-8.3-18.6-18.6-18.6ZM203.8,190.6c0,11.5-4.2,22.7-11.7,31.5-.9,1-1.3,2.3-1.3,3.7v14.3c0,1.6-1.3,3-3,3h-65.8c-1.6,0-3-1.3-3-3v-14.9c0-1.3-.4-2.5-1.3-3.5l-27.6-34.1c-3.4-4.2-4.9-9.4-4.2-14.8.6-5.3,3.4-10.1,7.6-13.3l1.6-1.2v15.4c0,3.1,2.5,5.6,5.6,5.6s5.6-2.5,5.6-5.6v-26.7h0v-71c0-4,3.3-7.3,7.3-7.3h1.3c4,0,7.3,3.3,7.3,7.3v43.6h0s0,36.3,0,36.3c0,3.1,2.5,5.6,5.6,5.6h0c3.1,0,5.6-2.5,5.6-5.6v-36.3c0-4,3.3-7.3,7.3-7.3h1.3c4,0,7.3,3.3,7.3,7.3v9.2h0s0,27.1,0,27.1c0,3.1,2.5,5.6,5.6,5.6h0c3.1,0,5.6-2.5,5.6-5.6v-27.1c0-4,3.3-7.3,7.3-7.3h1.3c4,0,7.3,3.3,7.3,7.3v11.5c0,.2,0,.4,0,.6v15.1c0,3.1,2.5,5.6,5.6,5.6h0c3.1,0,5.6-2.5,5.6-5.6v-13.6c0-.2,0-.3,0-.5,0-4,3.3-7.3,7.3-7.3h1.3c4,0,7.3,3.3,7.3,7.3v48.9h0Z"/>
  <path class="st0" d="M181.2,73.1h-34.3c-3.1,0-5.6-2.5-5.6-5.6s2.5-5.6,5.6-5.6h34.3c3.1,0,5.6,2.5,5.6,5.6s-2.5,5.6-5.6,5.6Z"/>
  <path class="st0" d="M113.8,46.9c-3.1,0-5.6-2.5-5.6-5.6V7c0-3.1,2.5-5.6,5.6-5.6s5.6,2.5,5.6,5.6v34.3c0,3.1-2.5,5.6-5.6,5.6Z"/>
  <path class="st0" d="M137.9,53.2c-1.4,0-2.9-.5-4-1.6-2.2-2.2-2.2-5.8,0-7.9l24.3-24.2c2.2-2.2,5.8-2.2,7.9,0s2.2,5.8,0,7.9l-24.3,24.2c-1.1,1.1-2.5,1.6-4,1.6Z"/>
  <path class="st0" d="M80.6,73.1h-34.3c-3.1,0-5.6-2.5-5.6-5.6s2.5-5.6,5.6-5.6h34.3c3.1,0,5.6,2.5,5.6,5.6s-2.5,5.6-5.6,5.6Z"/>
  <path class="st0" d="M89.7,53.2c-1.4,0-2.9-.5-4-1.6l-24.2-24.2c-2.2-2.2-2.2-5.8,0-7.9,2.2-2.2,5.8-2.2,7.9,0l24.2,24.2c2.2,2.2,2.2,5.8,0,7.9-1.1,1.1-2.5,1.6-4,1.6Z"/>
</svg>